<?xml version="1.0" encoding="UTF-8"?><svg xmlns="http://www.w3.org/2000/svg" xmlns:xlink="http://www.w3.org/1999/xlink" height="110.7" preserveAspectRatio="xMidYMid meet" version="1.0" viewBox="3.5 44.6 194.0 110.7" width="194.0" zoomAndPan="magnify"><path clip-rule="evenodd" d="M83.38,108.7h34.15c14.3,0,26.01,11.7,26.01,26.01v17.07H57.37v-17.07C57.37,120.41,69.08,108.7,83.38,108.7z" fill="none" stroke="#000" stroke-miterlimit="22.926" stroke-width="7"/><path clip-rule="evenodd" d="M98.46,98.33c13.84,0,25.13-11.29,25.13-25.13c0-13.84-11.29-25.13-25.13-25.13S73.32,59.36,73.32,73.2 C73.32,87.04,84.61,98.33,98.46,98.33z" fill="none" stroke="#000" stroke-miterlimit="22.926" stroke-width="7"/><path clip-rule="evenodd" d="M138.71,108.27c2.92-1.73,6.32-2.73,9.95-2.73h25.74c10.78,0,19.6,8.82,19.6,19.6v12.87h-42.75" fill="none" stroke="#000" stroke-miterlimit="22.926" stroke-width="7"/><path clip-rule="evenodd" d="M160.02,97.73c10.43,0,18.94-8.51,18.94-18.94c0-10.43-8.51-18.94-18.94-18.94c-10.43,0-18.94,8.51-18.94,18.94 C141.07,89.22,149.58,97.73,160.02,97.73z" fill="none" stroke="#000" stroke-miterlimit="22.926" stroke-width="7"/><path clip-rule="evenodd" d="M62.29,109.27c-2.92-1.73-6.32-2.73-9.95-2.73H26.6c-10.78,0-19.6,8.82-19.6,19.6v12.87h42.75" fill="none" stroke="#000" stroke-miterlimit="22.926" stroke-width="7"/><path clip-rule="evenodd" d="M40.98,98.73c10.43,0,18.94-8.51,18.94-18.94c0-10.43-8.51-18.94-18.94-18.94c-10.43,0-18.94,8.51-18.94,18.94 C22.04,90.22,30.55,98.73,40.98,98.73z" fill="none" stroke="#000" stroke-miterlimit="22.926" stroke-width="7"/></svg>