<?xml version="1.0" encoding="UTF-8"?><svg xmlns="http://www.w3.org/2000/svg" xmlns:xlink="http://www.w3.org/1999/xlink" height="60.0" preserveAspectRatio="xMidYMid meet" version="1.0" viewBox="2.0 2.0 60.0 60.0" width="60.0" zoomAndPan="magnify"><g><g><linearGradient gradientUnits="userSpaceOnUse" id="a" x1="11.551" x2="76.312" xlink:actuate="onLoad" xlink:show="other" xlink:type="simple" xmlns:xlink="http://www.w3.org/1999/xlink" y1="-12.355" y2="52.406"><stop offset=".161" stop-color="#90278e"/><stop offset=".859" stop-color="#35aad7"/></linearGradient><path d="M42.005,20.9c0.352,2.403,2.113,4.41,4.517,5.011l0.237,0.059C46.84,25.991,46.921,26,47.001,26 c0.448,0,0.856-0.304,0.97-0.758c0.133-0.536-0.193-1.079-0.729-1.212l-0.236-0.059c-1.517-0.379-2.653-1.594-2.978-3.08 c0.943-0.196,1.811-0.658,2.508-1.355c0.391-0.391,0.391-1.024,0-1.414c-0.391-0.391-1.023-0.391-1.414,0 c-1.133,1.133-3.109,1.133-4.242,0c-0.391-0.391-1.023-0.391-1.414,0c-0.391,0.39-0.391,1.023,0,1.414 C40.17,20.241,41.049,20.708,42.005,20.9z" fill="url(#a)"/><linearGradient gradientUnits="userSpaceOnUse" id="b" x1="-7.696" x2="57.065" xlink:actuate="onLoad" xlink:show="other" xlink:type="simple" xmlns:xlink="http://www.w3.org/1999/xlink" y1="6.891" y2="71.652"><stop offset=".161" stop-color="#90278e"/><stop offset=".859" stop-color="#35aad7"/></linearGradient><path d="M30,40c-1.654,0-3,1.346-3,3v4c0,0.552,0.447,1,1,1s1-0.448,1-1v-1h2v1c0,0.552,0.447,1,1,1 s1-0.448,1-1v-4C33,41.346,31.654,40,30,40z M29,44v-1c0-0.551,0.448-1,1-1s1,0.449,1,1v1H29z" fill="url(#b)"/><linearGradient gradientUnits="userSpaceOnUse" id="c" x1="-4.402" x2="60.359" xlink:actuate="onLoad" xlink:show="other" xlink:type="simple" xmlns:xlink="http://www.w3.org/1999/xlink" y1="3.598" y2="68.359"><stop offset=".161" stop-color="#90278e"/><stop offset=".859" stop-color="#35aad7"/></linearGradient><path d="M36,40c-0.553,0-1,0.448-1,1v6c0,0.552,0.447,1,1,1s1-0.448,1-1v-6C37,40.448,36.553,40,36,40z" fill="url(#c)"/><linearGradient gradientUnits="userSpaceOnUse" id="d" x1="-.359" x2="64.402" xlink:actuate="onLoad" xlink:show="other" xlink:type="simple" xmlns:xlink="http://www.w3.org/1999/xlink" y1="-.446" y2="64.315"><stop offset=".161" stop-color="#90278e"/><stop offset=".859" stop-color="#35aad7"/></linearGradient><path d="M59,50c-1.302,0-2.402,0.839-2.816,2H49.5l-2.7-3.6C46.611,48.148,46.314,48,46,48h-5v-2h9.184 c0.414,1.161,1.514,2,2.816,2c1.654,0,3-1.346,3-3s-1.346-3-3-3c-1.302,0-2.402,0.839-2.816,2H41v-2h8 c0.314,0,0.611-0.148,0.8-0.4l2.7-3.6h1.684c0.414,1.161,1.514,2,2.816,2c1.654,0,3-1.346,3-3c0-1.302-0.839-2.402-2-2.816v-3.882 l1.832-2.748C59.941,27.391,60,27.197,60,27v-5.184c1.161-0.414,2-1.514,2-2.816s-0.839-2.402-2-2.816V8c0-0.552-0.447-1-1-1h-4 c-0.334,0-0.646,0.167-0.832,0.445L52.465,10h-3.649c-0.393-1.103-1.407-1.902-2.624-1.981c-1.126-1.967-3.263-3.17-5.605-3.004 C39.812,3.202,38.038,2,36,2c-1.641,0-3.088,0.806-4,2.031C31.088,2.806,29.641,2,28,2c-2.038,0-3.812,1.202-4.587,3.016 C19.927,4.763,17,7.555,17,11c0,0.116,0.004,0.232,0.012,0.35c-1.386,0.487-2.535,1.474-3.244,2.762 C13.521,14.046,13.267,14,13,14c-1.302,0-2.402,0.839-2.816,2H5c-0.553,0-1,0.448-1,1v8c0,0.188,0.053,0.371,0.152,0.53L10.696,36 h-2.88C7.402,34.839,6.302,34,5,34c-1.654,0-3,1.346-3,3s1.346,3,3,3c1.302,0,2.402-0.839,2.816-2h4.13l2.206,3.53 C14.335,41.822,14.655,42,15,42h8v2h-9.184c-0.414-1.161-1.514-2-2.816-2c-1.654,0-3,1.346-3,3s1.346,3,3,3 c1.302,0,2.402-0.839,2.816-2H23v2h-5c-0.314,0-0.611,0.148-0.8,0.4L14.5,52H7.816C7.402,50.839,6.302,50,5,50 c-1.654,0-3,1.346-3,3s1.346,3,3,3c1.302,0,2.402-0.839,2.816-2H15c0.314,0,0.611-0.148,0.8-0.4l2.7-3.6H23c0,1.654,1.346,3,3,3 v2.323l-4.371,1.749c-0.513,0.206-0.763,0.787-0.558,1.3C21.228,58.762,21.604,59,22,59c0.124,0,0.25-0.023,0.371-0.072l5-2 C27.751,56.776,28,56.409,28,56v-3h3v3.184c-1.161,0.414-2,1.514-2,2.816c0,1.654,1.346,3,3,3s3-1.346,3-3 c0-1.302-0.839-2.402-2-2.816V53h3v3c0,0.489,0.354,0.906,0.836,0.986L42,57.847V61c0,0.552,0.447,1,1,1s1-0.448,1-1v-4 c0-0.489-0.354-0.906-0.836-0.986L38,55.153V53c1.654,0,3-1.346,3-3h4.5l2.7,3.6c0.188,0.252,0.485,0.4,0.8,0.4h7.184 c0.414,1.161,1.514,2,2.816,2c1.654,0,3-1.346,3-3S60.654,50,59,50z M53,44c0.552,0,1,0.449,1,1s-0.448,1-1,1s-1-0.449-1-1 S52.448,44,53,44z M5,38c-0.552,0-1-0.449-1-1s0.448-1,1-1s1,0.449,1,1S5.552,38,5,38z M11,46c-0.552,0-1-0.449-1-1s0.448-1,1-1 s1,0.449,1,1S11.552,46,11,46z M5,54c-0.552,0-1-0.449-1-1s0.448-1,1-1s1,0.449,1,1S5.552,54,5,54z M32,60c-0.552,0-1-0.449-1-1 s0.448-1,1-1s1,0.449,1,1S32.552,60,32,60z M38,26c-0.552,0-1-0.449-1-1s0.448-1,1-1s1,0.449,1,1S38.552,26,38,26z M38.447,31.895 C38.786,31.725,39,31.379,39,31v-0.816c1.107,0.395,1.908,1.414,1.982,2.636c-0.647,0.595-1.158,1.355-1.422,2.259 c-0.034,0.119-0.039,0.238-0.03,0.354C39.08,35.164,38.561,35,38,35h-1v-2.382L38.447,31.895z M57,38c-0.552,0-1-0.449-1-1 s0.448-1,1-1s1,0.449,1,1S57.552,38,57,38z M59,20c-0.552,0-1-0.449-1-1s0.448-1,1-1s1,0.449,1,1S59.552,20,59,20z M53,12 c0.334,0,0.646-0.167,0.832-0.445L55.535,9H58v7.184c-1.161,0.414-2,1.514-2,2.816s0.839,2.402,2,2.816v4.882l-1.832,2.748 C56.059,29.609,56,29.803,56,30v4.184c-0.847,0.302-1.514,0.969-1.816,1.816H52c-0.314,0-0.611,0.148-0.8,0.4L48.5,40h-2.038 c0.913-1.017,1.488-2.343,1.535-3.802C49.842,35.136,51,33.166,51,31c0-0.69-0.122-1.365-0.363-2.017 C52.708,27.726,54,25.475,54,23c0-2.301-1.138-4.446-3.009-5.747C50.997,17.171,51,17.086,51,17c0-1.863-0.87-3.569-2.314-4.69 c0.049-0.101,0.092-0.204,0.13-0.31H53z M47,11c0,0.551-0.448,1-1,1s-1-0.449-1-1s0.448-1,1-1S47,10.449,47,11z M36,4 c1.081,0,2.058,0.6,2.585,1.505C36.433,6.447,35,8.582,35,11c0,0.552,0.447,1,1,1s1-0.448,1-1c0-1.841,1.245-3.438,3.029-3.882 c0.008-0.002,0.014-0.008,0.022-0.011c0.023-0.003,0.046,0.003,0.068-0.002C40.435,7.035,40.723,7,41,7 c1.283,0,2.455,0.617,3.199,1.616C43.475,9.164,43,10.024,43,11c0,0.116,0.021,0.226,0.034,0.338 c-0.851,0.291-1.629,0.762-2.281,1.415c-0.391,0.391-0.391,1.023,0,1.414c0.195,0.195,0.451,0.293,0.707,0.293 s0.512-0.098,0.707-0.293c0.495-0.494,1.094-0.834,1.753-1.014C44.46,13.675,45.191,14,46,14c0.445,0,0.865-0.104,1.245-0.279 C48.338,14.459,49,15.673,49,17c0,0.208-0.034,0.409-0.065,0.608c-0.064,0.414,0.135,0.823,0.5,1.027 C51.017,19.521,52,21.193,52,23c0,2.018-1.202,3.828-3.063,4.611c-0.001,0-0.001,0.001-0.002,0.002 c-1.88,0.788-4.027,0.366-5.469-1.077c-0.391-0.391-1.023-0.391-1.414,0s-0.391,1.023,0,1.414 c1.344,1.344,3.125,2.055,4.942,2.055c0.597,0,1.198-0.085,1.789-0.242C48.921,30.167,49,30.58,49,31 c0,1.605-0.955,3.05-2.433,3.68c-0.396,0.168-0.639,0.571-0.604,1c0.006,0.071,0.015,0.141,0.024,0.21 C45.992,35.926,46,35.962,46,36c0,2.206-1.794,4-4,4h-1v-2c0-0.606-0.184-1.169-0.494-1.642c0.005,0,0.009,0.002,0.014,0.002 c0.434,0,0.832-0.284,0.96-0.72c0.463-1.588,2.135-2.503,3.721-2.04c0.535,0.156,1.086-0.151,1.24-0.68 c0.154-0.53-0.149-1.085-0.68-1.24c-1.001-0.292-2.021-0.253-2.945,0.049c-0.483-1.823-1.954-3.248-3.816-3.628v-0.285 c1.161-0.414,2-1.514,2-2.816c0-1.654-1.346-3-3-3c-0.275,0-0.536,0.049-0.789,0.119C37.076,21.762,37,21.385,37,21 c0-0.552-0.447-1-1-1s-1,0.448-1,1c0,0.796,0.195,1.575,0.546,2.284C35.204,23.771,35,24.361,35,25c0,1.302,0.839,2.402,2,2.816 v2.566l-1.447,0.724C35.214,31.275,35,31.621,35,32v3h-2V20.237l0.051-0.102c0.507-1.015,1.421-1.785,2.509-2.112 c0.528-0.16,0.828-0.718,0.668-1.246c-0.158-0.529-0.714-0.826-1.246-0.669c-0.724,0.219-1.392,0.575-1.981,1.032V7 C33,5.346,34.346,4,36,4z M26,35c-0.561,0-1.08,0.164-1.53,0.433c0.009-0.116,0.005-0.235-0.03-0.354 c-0.264-0.906-0.776-1.667-1.426-2.263c0.049-0.803,0.409-1.529,0.985-2.045V31c0,0.431,0.275,0.813,0.684,0.949L27,32.721V35H26z M25,20c-0.552,0-1-0.449-1-1s0.448-1,1-1s1,0.449,1,1S25.552,20,25,20z M28.316,31.051L26,30.279v-4.297 c0.081,0,0.16,0.009,0.242-0.012c1.901-0.476,3.833,0.416,4.707,2.166L31,28.237V35h-2v-3C29,31.569,28.725,31.188,28.316,31.051z M18.301,13.073c0.015-0.003,0.026-0.013,0.041-0.016c1.274-0.21,2.574,0.203,3.487,1.115c0.195,0.195,0.451,0.293,0.707,0.293 s0.512-0.098,0.707-0.293c0.391-0.39,0.391-1.023,0-1.414c-1.132-1.133-2.665-1.745-4.241-1.747C19.001,11.007,19,11.003,19,11 c0-2.206,1.794-4,4-4c0.277,0,0.565,0.035,0.88,0.106c0.023,0.005,0.046-0.002,0.068,0.002c0.008,0.002,0.014,0.009,0.022,0.011 C25.755,7.563,27,9.159,27,11c0,0.552,0.447,1,1,1s1-0.448,1-1c0-2.418-1.433-4.553-3.585-5.495C25.942,4.6,26.919,4,28,4 c1.654,0,3,1.346,3,3v6.874c-1.421-0.685-3.151-0.641-4.555,0.294c-0.459,0.306-0.584,0.927-0.277,1.387 c0.306,0.459,0.926,0.583,1.387,0.277c1.12-0.747,2.606-0.499,3.445,0.519v8.792c-1.385-1.079-3.188-1.529-5-1.151v-2.175 c1.161-0.414,2-1.514,2-2.816c0-1.654-1.346-3-3-3c-1.592,0-2.886,1.25-2.982,2.818c-1.086,0.395-2.304,0.14-3.139-0.697 c-0.391-0.391-1.023-0.391-1.414,0c-0.391,0.39-0.391,1.023,0,1.414c0.708,0.708,1.582,1.163,2.507,1.358 c-0.326,1.484-1.461,2.698-2.976,3.077l-0.237,0.059c-0.536,0.133-0.862,0.676-0.729,1.212C16.143,25.696,16.551,26,16.999,26 c0.08,0,0.161-0.009,0.242-0.03l0.238-0.059c2.404-0.601,4.165-2.61,4.516-5.015c0.192-0.04,0.383-0.091,0.572-0.154 c0.354,0.492,0.852,0.867,1.433,1.074v6.617c-1.413,0.617-2.438,1.831-2.822,3.295c-0.923-0.3-1.94-0.338-2.939-0.047 c-0.53,0.155-0.834,0.71-0.68,1.24c0.153,0.529,0.702,0.836,1.24,0.68c1.588-0.464,3.257,0.452,3.721,2.04 c0.128,0.437,0.526,0.72,0.96,0.72c0.005,0,0.009-0.002,0.014-0.002C23.184,36.831,23,37.394,23,38v1.85 C22.671,39.939,22.338,40,22,40c-2.206,0-4-1.794-4-4c0-0.038,0.008-0.074,0.013-0.11c0.01-0.07,0.019-0.14,0.024-0.21 c0.034-0.429-0.209-0.831-0.604-1C15.955,34.05,15,32.605,15,31c0-0.42,0.078-0.833,0.218-1.237 c0.591,0.157,1.191,0.242,1.789,0.242c1.817,0,3.599-0.711,4.942-2.055c0.391-0.391,0.391-1.023,0-1.414s-1.023-0.391-1.414,0 c-1.443,1.443-3.589,1.864-5.469,1.077c-0.001,0-0.001-0.001-0.002-0.002C13.202,26.828,12,25.018,12,23 c0-1.09,0.381-2.134,1.047-3.005C14.679,19.969,16,18.638,16,17c0-0.657-0.218-1.26-0.578-1.755 C15.979,14.109,17.04,13.296,18.301,13.073z M13,16c0.552,0,1,0.449,1,1s-0.448,1-1,1s-1-0.449-1-1S12.448,16,13,16z M6,24.713V18 h4.184c0.181,0.507,0.492,0.947,0.897,1.287C10.379,20.396,10,21.678,10,23c0,2.475,1.292,4.726,3.363,5.983 C13.122,29.635,13,30.31,13,31c0,2.166,1.158,4.136,3.003,5.198c0.048,1.459,0.623,2.785,1.535,3.802h-1.984L6,24.713z M39,50 c0,0.551-0.448,1-1,1H26c-0.552,0-1-0.449-1-1V38c0-0.551,0.448-1,1-1h12c0.552,0,1,0.449,1,1V50z M59,54c-0.552,0-1-0.449-1-1 s0.448-1,1-1s1,0.449,1,1S59.552,54,59,54z" fill="url(#d)"/></g></g></svg>